<?xml version="1.0" encoding="UTF-8"?>
<svg xmlns="http://www.w3.org/2000/svg" version="1.1" viewBox="0 0 206.39 500">
  <!-- Generator: Adobe Illustrator 29.6.1, SVG Export Plug-In . SVG Version: 2.1.1 Build 9)  -->
  <defs>
    <style>
      .st0 {
        isolation: isolate;
      }

      .st1 {
        fill: #b3b3b3;
        mix-blend-mode: multiply;
        opacity: .5;
      }
    </style>
  </defs>
  <g class="st0">
    <g id="Layer_1">
      <path class="st1" d="M55.23,355.73c-.26,1.77-.15,3.64.4,5.51,1.87,6.4,8.15,10.2,14.02,8.49,5.87-1.71,9.11-8.3,7.24-14.7-.76-2.62-2.27-4.8-4.17-6.35l-17.48,7.05Z"/>
      <path class="st1" d="M52.38,347.93l17.58-5.13c1.55-5.53,1.36-13.03-.91-20.81-4.11-14.09-13.52-23.74-21-21.55-7.48,2.19-10.22,15.38-6.1,29.47,2.27,7.77,6.15,14.2,10.43,18.02Z"/>
      <path class="st1" d="M113.81,301.91c.47,1.72.59,3.6.27,5.51-1.08,6.58-6.85,11.11-12.89,10.12-6.03-.99-10.05-7.13-8.97-13.72.44-2.69,1.67-5.04,3.38-6.81l18.2,4.89Z"/>
      <path class="st1" d="M115.71,293.83l-18.07-2.97c-2.2-5.3-2.93-12.77-1.61-20.77,2.38-14.48,10.55-25.2,18.24-23.93,7.69,1.27,12,14.03,9.62,28.51-1.31,7.99-4.39,14.83-8.18,19.15Z"/>
      <path class="st1" d="M95.67,460.66c.09,1.78.56,3.6,1.46,5.32,3.08,5.92,9.97,8.43,15.4,5.6,5.43-2.82,7.33-9.91,4.25-15.83-1.26-2.42-3.15-4.27-5.33-5.42l-15.78,10.31Z"/>
      <path class="st1" d="M91.36,453.57l16.25-8.45c.44-5.73-1.2-13.05-4.93-20.23-6.77-13.02-17.87-20.66-24.79-17.06-6.92,3.6-7.03,17.07-.26,30.09,3.74,7.18,8.79,12.73,13.73,15.65Z"/>
      <path class="st1" d="M142.68,396.48c.8,1.6,1.28,3.42,1.34,5.36.22,6.67-4.56,12.23-10.68,12.43-6.11.2-11.24-5.05-11.46-11.71-.09-2.73.66-5.27,1.99-7.33l18.81,1.26Z"/>
      <path class="st1" d="M142.97,388.18l-18.3.6c-3.19-4.77-5.35-11.96-5.62-20.06-.48-14.67,5.45-26.77,13.25-27.02,7.79-.25,14.5,11.43,14.97,26.1.26,8.09-1.43,15.41-4.3,20.38Z"/>
      <path class="st1" d="M43.11,234.88c-.66,1.66-.98,3.51-.88,5.45.35,6.66,5.58,11.81,11.69,11.49,6.11-.32,10.78-5.98,10.43-12.64-.14-2.72-1.1-5.19-2.6-7.14l-18.63,2.84Z"/>
      <path class="st1" d="M42.12,226.64l18.29-.95c2.78-5.03,4.32-12.37,3.9-20.46-.76-14.66-7.69-26.21-15.48-25.8-7.79.41-13.48,12.62-12.72,27.27.42,8.09,2.72,15.23,6,19.94Z"/>
      <path class="st1" d="M112.5,195.98c.06,1.79-.26,3.64-1,5.43-2.57,6.16-9.23,9.24-14.87,6.88-5.64-2.35-8.14-9.25-5.57-15.41,1.05-2.52,2.78-4.52,4.85-5.85l16.59,8.95Z"/>
      <path class="st1" d="M116.2,188.56l-16.9-7.05c-.93-5.67.09-13.1,3.21-20.58,5.65-13.54,16.07-22.09,23.26-19.09,7.2,3,8.45,16.42,2.8,29.96-3.12,7.47-7.69,13.43-12.36,16.76Z"/>
      <path class="st1" d="M74.58,103.05c-.86,1.57-1.41,3.37-1.54,5.3-.47,6.65,4.09,12.4,10.19,12.84,6.1.43,11.43-4.61,11.9-11.26.19-2.72-.45-5.29-1.7-7.4l-18.84.53Z"/>
      <path class="st1" d="M74.61,94.75l18.27,1.3c3.37-4.65,5.81-11.74,6.39-19.82,1.04-14.64-4.42-26.96-12.19-27.51-7.78-.55-14.93,10.86-15.97,25.5-.58,8.08.83,15.45,3.51,20.53Z"/>
      <path class="st1" d="M148.22,72.97c-.16,1.78-.7,3.58-1.66,5.26-3.31,5.79-10.29,8.04-15.6,5.01-5.31-3.03-6.94-10.18-3.63-15.98,1.35-2.37,3.32-4.14,5.53-5.21l15.37,10.92Z"/>
      <path class="st1" d="M152.81,66.05l-15.91-9.07c-.22-5.74,1.7-12.99,5.71-20.03,7.27-12.75,18.66-19.95,25.43-16.09,6.77,3.86,6.37,17.33-.9,30.08-4.01,7.03-9.28,12.38-14.33,15.11Z"/>
    </g>
  </g>
</svg>